<svg xmlns="http://www.w3.org/2000/svg" viewBox="0 0 200 200" width="100%" height="100%">
  <defs>
    <linearGradient id="auraGradient" x1="0%" y1="0%" x2="100%" y2="100%">
      <stop offset="0%" stop-color="#2563EB" />
      <stop offset="100%" stop-color="#06B6D4" />
    </linearGradient>
  </defs>
  <path d="M100 40 L30 100 L30 170 L170 170 L170 100 Z" fill="url(#auraGradient)" />
  <path d="M100 55 L45 102 L45 155 L155 155 L155 102 Z" fill="#111827" />
  <path d="M100 70 C100 95 75 95 75 95 C100 95 100 120 100 120 C100 95 125 95 125 95 C100 95 100 70 100 70 Z" fill="#06B6D4" />
  <path d="M135 50 C135 65 120 65 120 65 C135 65 135 80 135 80 C135 65 150 65 150 65 C135 65 135 50 135 50 Z" fill="#F97316" />
</svg>
